<?xml version="1.0" encoding="utf-8"?>
<!-- Generator: Adobe Illustrator 18.1.1, SVG Export Plug-In . SVG Version: 6.00 Build 0)  -->
<svg version="1.1" xmlns="http://www.w3.org/2000/svg" xmlns:xlink="http://www.w3.org/1999/xlink" x="0px" y="0px"
	 viewBox="0 0 499 466.6" enable-background="new 0 0 499 466.6" xml:space="preserve">
<g id="Layer_2">
</g>
<g id="Layer_1">
	<path fill="#EFEFEF" d="M103.2,346.2v9.2H72.3v15.3H100v8.7H72.3V395h31.9v9.2H62.5v-57.9H103.2z"/>
	<path fill="#EFEFEF" d="M127.1,390.9c2.7,3.1,6.2,4.6,10.8,4.6c4.5,0,8.1-1.5,10.8-4.6c2.7-3.1,4-7.3,4-12.6v-32.1h9.8v32.5
		c0,8.3-2.3,14.8-6.9,19.3s-10.5,6.8-17.6,6.8c-7.2,0-13.1-2.3-17.6-6.8c-4.6-4.5-6.9-10.9-6.9-19.3v-32.5h9.8v32.1
		C123.1,383.6,124.5,387.8,127.1,390.9z"/>
	<path fill="#EFEFEF" d="M219.6,365c0,9.6-4.2,15.6-12.5,18.1l15.2,21h-12.4L196,384.7h-12.8v19.5h-9.8v-57.9h21.5
		c8.8,0,15.2,1.5,19,4.5C217.7,353.7,219.6,358.5,219.6,365z M206.6,373.2c2-1.7,3-4.5,3-8.2c0-3.8-1-6.4-3.1-7.8
		c-2-1.4-5.7-2.1-10.9-2.1h-12.4v20.7h12.2C200.8,375.8,204.6,375,206.6,373.2z"/>
	<path fill="#EFEFEF" d="M248.3,353.9c-2.8,0-5.2,0.6-7,1.7c-1.8,1.2-2.7,2.9-2.7,5.3c0,2.3,0.9,4.1,2.7,5.4c1.8,1.2,5.7,2.6,11.6,4
		c5.9,1.4,10.4,3.5,13.4,6c3,2.6,4.5,6.4,4.5,11.5c0,5.1-1.9,9.2-5.7,12.3c-3.8,3.1-8.8,4.7-15,4.7c-9.1,0-17.1-3.1-24.1-9.4
		l6.1-7.4c5.9,5.1,11.9,7.6,18.2,7.6c3.2,0,5.6-0.7,7.5-2c1.9-1.4,2.8-3.1,2.8-5.4c0-2.2-0.9-4-2.6-5.2c-1.7-1.2-4.7-2.4-9-3.4
		c-4.3-1-7.5-2-9.7-2.8c-2.2-0.9-4.2-2-5.9-3.4c-3.4-2.6-5.1-6.6-5.1-11.9c0-5.4,1.9-9.5,5.8-12.4s8.7-4.4,14.5-4.4
		c3.7,0,7.4,0.6,11,1.8c3.6,1.2,6.8,2.9,9.4,5.1l-5.2,7.4c-1.7-1.5-4-2.8-7-3.8C254,354.4,251.2,353.9,248.3,353.9z"/>
	<path fill="#EFEFEF" d="M329.1,396.2c-5.9,5.7-13.1,8.6-21.7,8.6c-8.6,0-15.9-2.9-21.7-8.6c-5.9-5.7-8.8-12.8-8.8-21.4
		c0-8.5,2.9-15.7,8.8-21.4c5.9-5.7,13.1-8.6,21.7-8.6c8.6,0,15.9,2.9,21.7,8.6c5.9,5.7,8.8,12.8,8.8,21.4
		C337.9,383.3,334.9,390.4,329.1,396.2z M321.9,359.9c-4-4.1-8.8-6.1-14.5-6.1c-5.7,0-10.6,2-14.5,6.1c-3.9,4.1-5.9,9-5.9,14.9
		c0,5.8,2,10.8,5.9,14.9c3.9,4.1,8.8,6.1,14.5,6.1c5.7,0,10.6-2,14.5-6.1c3.9-4.1,5.9-9,5.9-14.9C327.8,368.9,325.9,364,321.9,359.9
		z"/>
	<path fill="#EFEFEF" d="M354.3,355.3v15.9H380v9h-25.7v23.9h-9.8v-57.9h38.6l-0.1,9.1H354.3z"/>
	<path fill="#EFEFEF" d="M418.9,355.2v49h-9.8v-49h-17.6v-8.9h44.9v8.9H418.9z"/>
	<path fill="#4EC1BE" d="M338.5,175.4c0-1.8-0.9-3.5-2.5-4.5l-35-22.4l35-22.4c1.5-1,2.5-2.7,2.5-4.5s-0.9-3.5-2.5-4.5l-84-53.8
		c-1.7-1.1-4-1.1-5.7,0l-84,53.8c-0.2,0.1-0.3,0.3-0.5,0.4c-0.2,0.1-0.3,0.2-0.4,0.4c-0.2,0.2-0.3,0.4-0.5,0.6
		c-0.1,0.1-0.2,0.3-0.3,0.4c-0.1,0.3-0.2,0.5-0.4,0.8c-0.1,0.1-0.1,0.3-0.2,0.4c-0.1,0.4-0.2,0.9-0.2,1.4v107.6
		c0,1.8,0.9,3.5,2.5,4.5l84,53.8c0,0,0.1,0,0.2,0.1c0.1,0,0.1,0.1,0.2,0.1c0.2,0.1,0.5,0.2,0.7,0.3c0.1,0.1,0.3,0.1,0.4,0.2
		c0.5,0.1,0.9,0.2,1.4,0.2s0.9-0.1,1.4-0.2c0.1,0,0.3-0.1,0.4-0.2c0.2-0.1,0.5-0.2,0.7-0.3c0.1,0,0.1-0.1,0.2-0.1
		c0.1,0,0.1,0,0.2-0.1l84-53.8c1.5-1,2.5-2.7,2.5-4.5c0-1.8-0.9-3.5-2.5-4.5l-35-22.4l35-22.4C337.6,178.9,338.5,177.2,338.5,175.4z
		 M249.2,74.1l74.2,47.5l-35,22.4c0,0,0,0,0,0l-39.2,25.1L175,121.6L249.2,74.1z M170.4,131.3l73.4,47v50.9v44.1l-73.4-47V131.3z
		 M254.5,273.3v-41.2l36.7-23.5l32.2,20.6L254.5,273.3z M257.8,217.4l-3.3,2.1v-41.2l36.7-23.5l32.2,20.6L257.8,217.4z"/>
</g>
</svg>
